<?xml version="1.0"?>
<svg xmlns:rdf="http://www.w3.org/1999/02/22-rdf-syntax-ns#" xmlns="http://www.w3.org/2000/svg" xmlns:cc="http://web.resource.org/cc/" xmlns:xlink="http://www.w3.org/1999/xlink" xmlns:dc="http://purl.org/dc/elements/1.1/" xmlns:svg="http://www.w3.org/2000/svg" id="svg2" viewBox="0 0 450 330" version="1.0">
  <defs id="defs4">
    <linearGradient id="linearGradient3471" y2="812.36" gradientUnits="userSpaceOnUse" y1="815.2" x2="-317.11" x1="-38.746">
      <stop id="stop3467" offset="0"/>
      <stop id="stop3469" stop-opacity="0" offset="1"/>
    </linearGradient>
    <radialGradient id="radialGradient3358" gradientUnits="userSpaceOnUse" cy="321.69" cx="282.55" gradientTransform="matrix(-3.1819e-7 .44499 .80315 0 86.897 538.69)" r="152.86">
      <stop id="stop3157" stop-color="#fff" stop-opacity=".44828" offset="0"/>
      <stop id="stop3159" stop-color="#fff" stop-opacity="0" offset="1"/>
    </radialGradient>
    <radialGradient id="radialGradient3360" gradientUnits="userSpaceOnUse" cy="513.83" cx="453.52" gradientTransform="matrix(.71723 -.71723 .87074 .87074 -366.27 379.5)" r="152.86">
      <stop id="stop3207" stop-color="#909090" offset="0"/>
      <stop id="stop3209" offset="1"/>
    </radialGradient>
    <clipPath id="clipPath3412">
      <path id="path3414" fill="url(#radialGradient3360)" d="m484.29 588.08a152.86 152.86 0 1 1 -305.72 0 152.86 152.86 0 1 1 305.72 0z"/>
    </clipPath>
    <linearGradient id="linearGradient3464" x1="342.01" gradientUnits="userSpaceOnUse" y1="36.559" gradientTransform="translate(68.386 436.1)" x2="311.13" y2="82.432">
      <stop id="stop3191" stop-color="#fff" stop-opacity=".53879" offset="0"/>
      <stop id="stop3193" stop-color="#fff" stop-opacity="0" offset="1"/>
    </linearGradient>
    <radialGradient id="radialGradient3466" gradientUnits="userSpaceOnUse" cy="556.61" cx="-174.35" gradientTransform="matrix(.013349 1.4275 -1.4166 .013247 648.56 822.32)" r="69.436">
      <stop id="stop3199" stop-color="#fff" offset="0"/>
      <stop id="stop3201" stop-color="#afafaf" offset="1"/>
    </radialGradient>
    <filter id="filter3472">
      <feGaussianBlur id="feGaussianBlur3474" stdDeviation="9.1714288"/>
    </filter>
    <filter id="filter3215" y="-.16742" width="1.0671" height="1.3348" x="-.033573">
      <feGaussianBlur id="feGaussianBlur3217" stdDeviation="5.5223797"/>
    </filter>
  </defs>
  <g id="layer1" transform="translate(-49.022 -435.22)">
    <path id="path3251" opacity=".7732" d="m111.43 799.51a200 30 0 1 1 -400 0 200 30 0 1 1 400 0z" transform="matrix(.83495 .13890 -.17338 1.0422 434.35 -114.61)" filter="url(#filter3215)" fill="url(#linearGradient3471)"/>
    <path id="path2383" transform="translate(13 3)" fill="url(#radialGradient3360)" d="m484.29 588.08a152.86 152.86 0 1 1 -305.72 0 152.86 152.86 0 1 1 305.72 0z"/>
    <path id="path3172" opacity=".7732" fill="url(#radialGradient3358)" d="m442.38 663.4c-21.49 18.17-57 30.05-97.14 30.05-39.24 0-74.05-11.35-95.67-28.83-0.74 2-1.41 4.03-2 6.09 13.51 36.78 51.72 63.33 96.72 63.33 47.34 0 87.19-29.38 98.66-69.14-0.19-0.51-0.38-1-0.57-1.5z"/>
    <path id="path3165" transform="matrix(.76289 0 0 .76289 479.02 131)" fill="url(#radialGradient3466)" d="m-107.14 603.08a69.286 69.286 0 1 1 -138.57 0 69.286 69.286 0 1 1 138.57 0z"/>
    <path id="text3167" d="m344.43 618.45c-2.32 0-4.59-0.35-6.82-1.05-2.2-0.7-4.17-1.72-5.91-3.05-1.74-1.35-3.14-2.98-4.2-4.89-1.04-1.94-1.56-4.14-1.56-6.6 0-1.86 0.26-3.53 0.8-5 0.55-1.48 1.27-2.78 2.14-3.92 0.89-1.14 1.91-2.13 3.04-2.97 1.14-0.87 2.28-1.62 3.45-2.25-0.71-0.39-1.48-0.88-2.33-1.49-0.84-0.6-1.63-1.35-2.35-2.24-0.73-0.9-1.34-1.96-1.85-3.19-0.48-1.24-0.73-2.68-0.73-4.32 0-2.22 0.48-4.19 1.42-5.91 0.96-1.71 2.23-3.15 3.8-4.31 1.58-1.16 3.35-2.04 5.33-2.65 2.01-0.6 4.05-0.91 6.13-0.91s4.07 0.31 5.98 0.91c1.94 0.61 3.64 1.49 5.11 2.65 1.48 1.16 2.65 2.6 3.52 4.31 0.9 1.72 1.34 3.69 1.34 5.91 0 1.64-0.24 3.07-0.72 4.28-0.46 1.21-1.05 2.26-1.78 3.15-0.7 0.87-1.46 1.62-2.28 2.25-0.82 0.61-1.59 1.12-2.29 1.56 0.99 0.51 2.03 1.18 3.12 2.03 1.09 0.82 2.08 1.82 2.97 3.01 0.92 1.16 1.67 2.5 2.25 4.02 0.61 1.53 0.91 3.22 0.91 5.08 0 2.46-0.53 4.66-1.6 6.6-1.04 1.91-2.43 3.54-4.17 4.89-1.71 1.33-3.68 2.35-5.91 3.05-2.22 0.7-4.49 1.05-6.81 1.05m9.42-40.97c0-1.33-0.25-2.49-0.76-3.48-0.48-1.01-1.16-1.85-2.03-2.5-0.84-0.68-1.83-1.17-2.97-1.49-1.14-0.34-2.36-0.5-3.66-0.5-1.31 0-2.53 0.16-3.66 0.5-1.14 0.32-2.14 0.81-3.01 1.49-0.85 0.65-1.52 1.49-2.03 2.5-0.49 0.99-0.73 2.15-0.73 3.48 0 1.43 0.24 2.68 0.73 3.77 0.51 1.07 1.18 1.97 2.03 2.72 0.87 0.73 1.87 1.28 3.01 1.67 1.13 0.36 2.35 0.54 3.66 0.54 1.3 0 2.52-0.18 3.66-0.54 1.14-0.39 2.13-0.94 2.97-1.67 0.87-0.75 1.55-1.65 2.03-2.72 0.51-1.09 0.76-2.34 0.76-3.77m1.82 24.65c0-1.52-0.29-2.91-0.87-4.17-0.56-1.25-1.34-2.34-2.36-3.26-0.99-0.92-2.17-1.63-3.55-2.14-1.36-0.5-2.84-0.76-4.46-0.76-1.64 0-3.16 0.26-4.53 0.76-1.36 0.51-2.54 1.22-3.56 2.14-0.99 0.92-1.76 2.01-2.32 3.26-0.55 1.26-0.83 2.65-0.83 4.17 0 1.6 0.28 3.03 0.83 4.28 0.56 1.26 1.33 2.32 2.32 3.19 1.02 0.87 2.2 1.54 3.56 2 1.37 0.46 2.89 0.68 4.53 0.68 1.62 0 3.1-0.22 4.46-0.68 1.38-0.46 2.56-1.13 3.55-2 1.02-0.87 1.8-1.93 2.36-3.19 0.58-1.25 0.87-2.68 0.87-4.28"/>
    <path id="path3384" d="m484.29 588.08a152.86 152.86 0 1 1 -305.72 0 152.86 152.86 0 1 1 305.72 0z" clip-path="url(#clipPath3412)" transform="translate(13 3)" filter="url(#filter3472)" stroke="#000" stroke-linecap="round" stroke-width="6" fill="none"/>
    <path id="path3452" fill-rule="evenodd" fill="url(#linearGradient3464)" d="m350.47 455.94c122.38 21.58 133.17 142.96 133.17 142.96s-34.83-79.66-104.13-80.37l-29.04-62.59z"/>
  </g>
  <metadata>
    <rdf:RDF>
      <cc:Work>
        <dc:format>image/svg+xml</dc:format>
        <dc:type rdf:resource="http://purl.org/dc/dcmitype/StillImage"/>
        <cc:license rdf:resource="http://creativecommons.org/licenses/publicdomain/"/>
        <dc:publisher>
          <cc:Agent rdf:about="http://openclipart.org/">
            <dc:title>Openclipart</dc:title>
          </cc:Agent>
        </dc:publisher>
        <dc:title>8ball</dc:title>
        <dc:date>2008-07-15T07:50:29</dc:date>
        <dc:description>Tried making it look more glossy</dc:description>
        <dc:source>http://openclipart.org/detail/17834/8ball-by-lemmling</dc:source>
        <dc:creator>
          <cc:Agent>
            <dc:title>lemmling</dc:title>
          </cc:Agent>
        </dc:creator>
        <dc:subject>
          <rdf:Bag>
            <rdf:li>8ball</rdf:li>
            <rdf:li>ball</rdf:li>
            <rdf:li>billiards</rdf:li>
            <rdf:li>clip art</rdf:li>
            <rdf:li>clipart</rdf:li>
            <rdf:li>image</rdf:li>
            <rdf:li>media</rdf:li>
            <rdf:li>png</rdf:li>
            <rdf:li>pool</rdf:li>
            <rdf:li>public domain</rdf:li>
            <rdf:li>remix</rdf:li>
            <rdf:li>sport</rdf:li>
            <rdf:li>svg</rdf:li>
          </rdf:Bag>
        </dc:subject>
      </cc:Work>
      <cc:License rdf:about="http://creativecommons.org/licenses/publicdomain/">
        <cc:permits rdf:resource="http://creativecommons.org/ns#Reproduction"/>
        <cc:permits rdf:resource="http://creativecommons.org/ns#Distribution"/>
        <cc:permits rdf:resource="http://creativecommons.org/ns#DerivativeWorks"/>
      </cc:License>
    </rdf:RDF>
  </metadata>
</svg>
